<?xml version="1.0" standalone="no"?>
<!DOCTYPE svg PUBLIC "-//W3C//DTD SVG 20010904//EN"
 "http://www.w3.org/TR/2001/REC-SVG-20010904/DTD/svg10.dtd">
<svg version="1.0" xmlns="http://www.w3.org/2000/svg"
 width="512.000000pt" height="512.000000pt" viewBox="0 0 512.000000 512.000000"
 preserveAspectRatio="xMidYMid meet">

<g transform="translate(0.000000,512.000000) scale(0.100000,-0.100000)"
fill="#000000" stroke="none">
<path d="M150 4065 l0 -755 150 0 150 0 2 505 3 505 253 -505 252 -505 198 2
197 3 0 750 0 750 -152 3 -153 3 -1 -503 0 -503 -252 503 -252 502 -197 0
-198 0 0 -755z"/>
<path d="M2270 4806 c-298 -63 -517 -273 -591 -565 -18 -71 -21 -104 -17 -205
9 -212 69 -347 224 -502 77 -78 105 -99 185 -138 123 -59 207 -79 339 -79 213
0 397 78 541 230 146 153 209 319 209 551 l0 122 -337 -2 -338 -3 -3 -147 -3
-148 176 0 c115 0 175 -4 175 -10 0 -40 -88 -159 -151 -206 -229 -168 -553
-87 -675 170 -131 277 43 595 349 639 93 13 199 -9 282 -58 32 -19 60 -35 64
-35 3 1 47 51 98 113 l91 112 -26 23 c-41 34 -200 110 -267 127 -85 22 -246
27 -325 11z"/>
<path d="M4092 4810 c-237 -43 -451 -204 -552 -415 -102 -214 -99 -465 10
-673 76 -147 184 -253 332 -328 276 -139 607 -93 841 116 227 204 307 548 194
830 -42 103 -88 171 -177 260 -96 96 -194 154 -320 190 -86 24 -249 34 -328
20z m204 -301 c238 -43 406 -278 366 -511 -52 -300 -373 -468 -642 -336 -336
164 -334 651 3 809 101 47 172 57 273 38z"/>
<path d="M1677 2699 c-275 -24 -580 -99 -832 -205 -44 -19 -252 -112 -463
-206 l-382 -173 0 -907 0 -907 322 110 c837 287 932 318 1083 348 83 16 194
35 247 41 60 6 421 10 943 10 534 0 881 4 942 11 186 21 379 95 518 201 124
95 909 758 947 801 46 52 92 145 107 215 67 323 -228 625 -547 558 -91 -19
-122 -35 -439 -232 -148 -91 -302 -183 -343 -204 -137 -69 -292 -115 -457
-135 l-53 -7 15 43 c43 120 25 284 -43 398 -43 74 -134 161 -203 196 -103 53
-129 55 -724 53 -302 0 -589 -4 -638 -9z m1236 -318 c133 -82 123 -279 -18
-342 -37 -17 -75 -19 -487 -19 l-448 0 0 -150 0 -150 683 0 c735 0 778 3 975
55 198 53 281 96 747 384 l230 143 60 -4 c44 -3 70 -10 94 -27 37 -27 71 -91
71 -136 0 -77 -16 -93 -471 -476 -239 -201 -452 -379 -474 -396 -58 -46 -173
-101 -263 -125 -75 -21 -96 -22 -1042 -29 -1000 -7 -1003 -7 -1204 -49 -27 -6
-50 -9 -51 -8 -1 2 -88 261 -193 576 l-191 574 53 23 c86 38 299 103 424 129
101 21 198 35 342 50 19 2 280 3 580 2 l545 -1 38 -24z m-2073 -857 c100 -300
178 -549 174 -553 -5 -4 -106 -41 -224 -81 -118 -40 -277 -94 -353 -121 l-137
-48 2 601 3 600 170 77 c94 43 173 76 177 74 3 -2 88 -249 188 -549z"/>
</g>
</svg>
