<svg xmlns="http://www.w3.org/2000/svg" version="1.1" xmlns:xlink="http://www.w3.org/1999/xlink" xmlns:svgjs="http://svgjs.dev/svgjs" width="1080" height="1920" preserveAspectRatio="none" viewBox="0 0 1080 1920"><g mask="url(&quot;#SvgjsMask1050&quot;)" fill="none"><path d="M638.728,363.339C677.853,365.047,719.909,352.38,738.482,317.903C756.419,284.607,739.735,245.614,719.287,213.799C700.859,185.127,672.809,163.107,638.728,162.697C603.971,162.279,572.246,181.79,554.744,211.822C537.114,242.073,536.021,279.184,552.995,309.807C570.501,341.39,602.652,361.765,638.728,363.339" fill="rgba(12, 182, 240, 0.58)" class="triangle-float2"></path><path d="M735.792,1486.916C830.185,1487.595,934.439,1480.983,985.949,1401.881C1041.097,1317.192,1028.129,1205.325,975.239,1119.208C924.767,1037.027,832.18,997.803,735.792,994.563C632.331,991.085,520.28,1013.517,466.739,1102.115C411.81,1193.01,430.939,1311.286,491.796,1398.324C544.938,1474.328,643.054,1486.248,735.792,1486.916" fill="rgba(12, 182, 240, 0.58)" class="triangle-float1"></path><path d="M74.258,904.599C154.687,908.108,244.74,890.224,282.83,819.299C319.732,750.586,275.214,672.885,234.386,606.43C196.208,544.287,147.119,483.062,74.258,479.805C-3.376,476.335,-74.994,522.987,-112.744,590.914C-149.468,656.995,-143.72,737.442,-105.008,802.379C-67.256,865.706,0.602,901.386,74.258,904.599" fill="rgba(12, 182, 240, 0.58)" class="triangle-float3"></path><path d="M718.4443172028141 1031.331661641173L528.3084067544812 769.6320320677617 266.6087771810698 959.7679425160945 456.7446876294027 1221.467572089506z" fill="rgba(12, 182, 240, 0.58)" class="triangle-float3"></path><path d="M544.7662908528512 180.43778241264863L521.1500930186276 12.399803385178501 353.1121139911574 36.01600121940214 376.72831182538107 204.05398024687227z" fill="rgba(12, 182, 240, 0.58)" class="triangle-float3"></path><path d="M253.8101723425222 353.08956450423125L346.26081752400586 637.623393180514 630.7946462002885 545.1727479990303 538.3440010188049 260.6389193227476z" fill="rgba(12, 182, 240, 0.58)" class="triangle-float2"></path></g><defs><mask id="SvgjsMask1050"><rect width="1080" height="1920" fill="#ffffff"></rect></mask><style>
                @keyframes float1 {
                    0%{transform: translate(0, 0)}
                    50%{transform: translate(-10px, 0)}
                    100%{transform: translate(0, 0)}
                }

                .triangle-float1 {
                    animation: float1 5s infinite;
                }

                @keyframes float2 {
                    0%{transform: translate(0, 0)}
                    50%{transform: translate(-5px, -5px)}
                    100%{transform: translate(0, 0)}
                }

                .triangle-float2 {
                    animation: float2 4s infinite;
                }

                @keyframes float3 {
                    0%{transform: translate(0, 0)}
                    50%{transform: translate(0, -10px)}
                    100%{transform: translate(0, 0)}
                }

                .triangle-float3 {
                    animation: float3 6s infinite;
                }
            </style></defs></svg>