<svg xmlns="http://www.w3.org/2000/svg" version="1.1" xmlns:xlink="http://www.w3.org/1999/xlink" xmlns:svgjs="http://svgjs.dev/svgjs" width="1080" height="1920" preserveAspectRatio="none" viewBox="0 0 1080 1920"><g mask="url(&quot;#SvgjsMask1054&quot;)" fill="none"><path d="M332.185,654.011C415.034,653.453,495.463,624.511,542.502,556.308C597.173,477.04,628.49,374.93,583.319,289.889C535.962,200.732,432.994,154.937,332.185,160.354C239.702,165.323,167.811,233.08,123.817,314.58C82.291,391.509,71.164,484.674,116.9,559.177C160.87,630.804,248.141,654.577,332.185,654.011" fill="rgba(12, 182, 240, 0.58)" class="triangle-float3"></path><path d="M172.929,1867.688C270.799,1862.097,362.513,1818.524,412.737,1734.337C464.237,1648.011,465.614,1542.793,420.279,1453.076C369.696,1352.973,284.97,1264.861,172.929,1259.76C53.254,1254.311,-56.73,1324.958,-116.771,1428.625C-176.956,1532.541,-185.679,1664.508,-119.543,1764.742C-58.536,1857.203,62.335,1874.005,172.929,1867.688" fill="rgba(12, 182, 240, 0.58)" class="triangle-float1"></path><path d="M803.33,1153.814C873.348,1152.398,937.208,1115.665,972.844,1055.377C1009.144,993.965,1016.046,917.063,979.479,855.809C943.711,795.892,873.068,768.987,803.33,771.422C737.914,773.706,681.953,811.894,647.274,867.409C610.031,927.029,587.879,1000.753,621.514,1062.481C656.295,1126.312,730.653,1155.283,803.33,1153.814" fill="rgba(12, 182, 240, 0.58)" class="triangle-float2"></path><path d="M624.521,1724.576C687.775,1723.249,735.991,1673.083,765.135,1616.927C791.792,1565.564,792.19,1505.741,764.454,1454.953C735.443,1401.83,685.008,1357.205,624.521,1359.441C566.703,1361.578,530.219,1414.49,501.43,1464.676C472.835,1514.524,448.704,1571.112,473.302,1623.049C501.155,1681.859,559.463,1725.941,624.521,1724.576" fill="rgba(12, 182, 240, 0.58)" class="triangle-float1"></path><path d="M194.0760741787076 357.5861751931614L-113.39563611379964 325.2695962170379-145.71221508992318 632.7413065095451 161.75949520258405 665.0578854856686z" fill="rgba(12, 182, 240, 0.58)" class="triangle-float3"></path></g><defs><mask id="SvgjsMask1054"><rect width="1080" height="1920" fill="#ffffff"></rect></mask><style>
                @keyframes float1 {
                    0%{transform: translate(0, 0)}
                    50%{transform: translate(-10px, 0)}
                    100%{transform: translate(0, 0)}
                }

                .triangle-float1 {
                    animation: float1 5s infinite;
                }

                @keyframes float2 {
                    0%{transform: translate(0, 0)}
                    50%{transform: translate(-5px, -5px)}
                    100%{transform: translate(0, 0)}
                }

                .triangle-float2 {
                    animation: float2 4s infinite;
                }

                @keyframes float3 {
                    0%{transform: translate(0, 0)}
                    50%{transform: translate(0, -10px)}
                    100%{transform: translate(0, 0)}
                }

                .triangle-float3 {
                    animation: float3 6s infinite;
                }
            </style></defs></svg>